<?xml version="1.0" encoding="utf-8"?>
<!-- Generator: Adobe Illustrator 25.3.0, SVG Export Plug-In . SVG Version: 6.00 Build 0)  -->
<svg version="1.1" id="Layer_1" xmlns="http://www.w3.org/2000/svg" xmlns:xlink="http://www.w3.org/1999/xlink" x="0px" y="0px"
	 viewBox="0 0 214 124" style="enable-background:new 0 0 214 124;" xml:space="preserve">
<style type="text/css">
	.st0{fill:#F9F7FF;}
	.st1{fill:#E5E0FC;}
	.st2{fill:#AFAAE5;}
	.st3{fill:#D9D3EA;}
	.st4{fill:#AFA3C6;}
	.st5{fill:#7F6997;}
	.st6{fill:#978ACE;}
	.st7{fill:#584088;}
	.st8{fill:#CAB5FF;}
	.st9{fill:#AC7FFF;}
	.st10{fill:#180633;}
	.st11{fill:#6E49CB;}
	.st12{fill:#380D75;}
	.st13{fill:#FCF7F2;}
	.st14{fill:#E5DAD1;}
	.st15{fill:#FFD8A4;}
	.st16{fill:#FFC46C;}
	.st17{fill:#FCA121;}
	.st18{fill:#E58615;}
	.st19{fill:#FFD8CC;}
	.st20{fill:#FF9769;}
	.st21{fill:#FC6D26;}
	.st22{fill:#E85929;}
	.st23{fill:#FF908D;}
	.st24{fill:#4BEACC;}
	.st25{fill:#FF675F;}
	.st26{fill:#DB3B21;}
	.st27{fill:#AF1B1B;}
	.st28{fill:#5AC4FF;}
	.st29{fill:#94DEFF;}
	.st30{fill:#18A3FF;}
	.st31{fill:#007FC6;}
	.st32{fill:#FF99D1;}
	.st33{fill:#F968B3;}
	.st34{fill:#F7489C;}
	.st35{fill:#C13880;}
	.st36{fill:#00CFB4;}
	.st37{fill:#04AF92;}
	.st38{fill:#068970;}
	.st39{fill:#CCCCCC;}
	.st40{fill:#8C929D;}
	.st41{fill:#2E2E2E;}
	.st42{fill:none;stroke:#380D75;stroke-width:4;stroke-linecap:round;stroke-linejoin:round;stroke-miterlimit:10;}
	.st43{fill:none;stroke:#380D75;stroke-width:2.5;stroke-linecap:round;stroke-linejoin:round;stroke-miterlimit:10;}
	.st44{fill:none;stroke:#AFAAE5;stroke-width:4;stroke-linecap:round;stroke-linejoin:round;stroke-miterlimit:10;}
	.st45{fill:none;stroke:#AFAAE5;stroke-width:2.5;stroke-linecap:round;stroke-linejoin:round;stroke-miterlimit:10;}
	.st46{fill:#FFFFFF;}
</style>
<g>
	<g>
		<g>
			<path class="st46" d="M107,121.6c16.5-5.9,37.5-21.8,43.7-34.7c8.8-18.2,4.5-31.7,5.6-66.1c0,0-27.9,5.2-49.4-18.3h0
				C86.7,22.9,57.6,20.9,57.6,20.9c1.1,34.3-3.1,47.9,5.6,66.1C69.5,99.8,90.5,115.8,107,121.6"/>
		</g>
	</g>
	<g>
		<g>
			<polygon class="st3" points="107,121.4 107,121.4 107,121.4 			"/>
		</g>
		<g>
			<path class="st1" d="M156.4,20.6c0,0-27.9,5.2-49.4-18.3h0C86.7,22.7,57.6,20.6,57.6,20.6c1.1,34.3-3.1,47.9,5.6,66.1
				c6.2,12.9,27.3,28.8,43.7,34.7c16.5-5.9,37.5-21.8,43.7-34.7C159.5,68.5,155.3,55,156.4,20.6z M141.4,82.5
				c-4.3,8.9-19.4,21.2-33.1,27.6c-1.1,0.5-2.3,0.5-3.4,0c-13.7-6.4-28.8-18.7-33.1-27.6c-5.1-10.5-4.9-19.3-4.6-35.3
				c0.1-4.1,0.2-8.4,0.2-13.2c0-2.1,1.5-3.9,3.6-4.2c9.1-1.3,21.4-4.5,32.8-12.3c1.5-1,3.4-1,4.9,0.1c11.8,8.9,24.2,12.1,33.4,13.1
				c2.1,0.2,3.8,2,3.8,4.2c0,4.4,0.1,8.5,0.2,12.3C146.3,63.2,146.5,71.9,141.4,82.5z"/>
		</g>
	</g>
	<g>
		<circle class="st24" cx="21.2" cy="61.9" r="18.8"/>
	</g>
	<g>
		<circle class="st24" cx="192.8" cy="61.9" r="18.8"/>
	</g>
	<g>
		<polygon class="st9" points="127.7,53.7 85.6,53.7 85.6,84 127.7,84 127.7,77.8 		"/>
	</g>
	<g>
		<g>
			<g>
				<path class="st12" d="M107,123.6C107,123.6,107,123.6,107,123.6c-0.3,0-0.5,0-0.7-0.1c-15.8-5.7-38.1-21.7-44.8-35.7
					c-6.3-13.1-6.1-24.1-5.8-40.7c0.1-7.4,0.3-15.8,0-26.2c0-0.6,0.2-1.1,0.6-1.5c0.4-0.4,1-0.6,1.5-0.6c0.3,0,28.4,1.7,47.8-17.7
					c0.8-0.8,2.2-0.7,2.9,0.1c20.5,22.3,47.2,17.7,47.5,17.7c0.6-0.1,1.2,0.1,1.7,0.5c0.5,0.4,0.7,1,0.7,1.6
					c-0.3,10.4-0.2,18.8,0,26.2c0.3,16.6,0.5,27.6-5.8,40.7c-6.7,14-29,30.1-44.8,35.7C107.5,123.6,107.2,123.6,107,123.6z
					 M59.7,22.9c0.3,9.5,0.1,17.3,0,24.3c-0.3,16.6-0.5,26.6,5.4,38.8c5.6,11.7,25.1,27.2,41.9,33.5c16.8-6.2,36.3-21.7,41.9-33.5
					c5.9-12.2,5.7-22.2,5.4-38.8c-0.1-6.9-0.3-14.6,0-24.1c-7.2,0.7-29.1,1-47.4-17.8C89.5,21.8,66.8,23,59.7,22.9z"/>
			</g>
		</g>
		<g>
			<g>
				<path class="st12" d="M56.1,63.9H40c-1.1,0-2-0.9-2-2s0.9-2,2-2h16.1c1.1,0,2,0.9,2,2S57.2,63.9,56.1,63.9z"/>
			</g>
			<g>
				<path class="st12" d="M174,63.9h-16.1c-1.1,0-2-0.9-2-2s0.9-2,2-2H174c1.1,0,2,0.9,2,2S175.1,63.9,174,63.9z"/>
			</g>
			<g>
				<path class="st12" d="M21.2,82.7c-11.5,0-20.8-9.4-20.8-20.8S9.7,41,21.2,41S42,50.4,42,61.9S32.7,82.7,21.2,82.7z M21.2,45
					c-9.3,0-16.8,7.6-16.8,16.8s7.6,16.8,16.8,16.8S38,71.2,38,61.9S30.5,45,21.2,45z"/>
			</g>
			<g>
				<path class="st12" d="M18.5,68.5c-0.5,0-1-0.2-1.4-0.6l-3.9-3.9c-0.8-0.8-0.8-2,0-2.8c0.8-0.8,2-0.8,2.8,0l2.5,2.5l7.8-7.8
					c0.8-0.8,2-0.8,2.8,0c0.8,0.8,0.8,2,0,2.8l-9.2,9.2C19.5,68.3,19,68.5,18.5,68.5z"/>
			</g>
			<g>
				<path class="st12" d="M192.8,82.7c-11.5,0-20.8-9.4-20.8-20.8S181.3,41,192.8,41s20.8,9.4,20.8,20.8S204.3,82.7,192.8,82.7z
					 M192.8,45c-9.3,0-16.8,7.6-16.8,16.8s7.6,16.8,16.8,16.8c9.3,0,16.8-7.6,16.8-16.8S202.1,45,192.8,45z"/>
			</g>
			<g>
				<path class="st12" d="M190.1,68.5L190.1,68.5c-0.5,0-1-0.2-1.4-0.6l-3.9-3.9c-0.8-0.8-0.8-2,0-2.8c0.8-0.8,2-0.8,2.8,0l2.5,2.5
					l7.8-7.8c0.8-0.8,2-0.8,2.8,0c0.8,0.8,0.8,2,0,2.8l-9.2,9.2C191.2,68.3,190.7,68.5,190.1,68.5z"/>
			</g>
		</g>
		<g>
			<g>
				<g>
					<path class="st12" d="M107,76.7c-1.1,0-2-0.9-2-2v-8.1c0-1.1,0.9-2,2-2s2,0.9,2,2v8.1C109,75.8,108.1,76.7,107,76.7z"/>
				</g>
				<g>
					<path class="st12" d="M107,70.5c-2.1,0-3.8-1.7-3.8-3.8s1.7-3.8,3.8-3.8s3.8,1.7,3.8,3.8S109.1,70.5,107,70.5z M107,66.5
						c-0.1,0-0.2,0.1-0.2,0.2c0,0.2,0.3,0.2,0.3,0C107.2,66.5,107.1,66.5,107,66.5z"/>
				</g>
			</g>
			<g>
				<path class="st12" d="M121.5,53.7c-1.1,0-2-0.9-2-2v-6.6c0-6.9-5.6-12.5-12.5-12.5s-12.5,5.6-12.5,12.5v6.6c0,1.1-0.9,2-2,2
					s-2-0.9-2-2v-6.6c0-9.1,7.4-16.5,16.5-16.5s16.5,7.4,16.5,16.5v6.6C123.5,52.8,122.6,53.7,121.5,53.7z"/>
			</g>
			<g>
				<path class="st12" d="M127.7,86H86.3c-1.1,0-2-0.9-2-2V54c0-1.1,0.9-2,2-2h41.4c1.1,0,2,0.9,2,2v30
					C129.7,85.1,128.8,86,127.7,86z M88.3,82h37.4V56H88.3V82z"/>
			</g>
		</g>
	</g>
</g>
</svg>
