<svg id="Layer_1" data-name="Layer 1" xmlns="http://www.w3.org/2000/svg" viewBox="0 0 100 100"><defs><style>.cls-1{fill:#38f2af;}.cls-2{fill:#380d75;}</style></defs><circle class="cls-1" cx="50" cy="50" r="17.5"/><path class="cls-2" d="M5.83,70A2.51,2.51,0,0,1,3.5,68.43,50,50,0,0,1,68.42,3.5a2.5,2.5,0,0,1-1.84,4.65A45,45,0,0,0,8.15,66.58a2.5,2.5,0,0,1-1.4,3.25A2.47,2.47,0,0,1,5.83,70Z"/><path class="cls-2" d="M50,100a49.64,49.64,0,0,1-21.91-5,2.5,2.5,0,1,1,2.2-4.49,45,45,0,0,0,60.8-58.85,2.5,2.5,0,1,1,4.56-2.05A50,50,0,0,1,50,100Z"/><path class="cls-2" d="M17.37,52.5a2.5,2.5,0,0,1-2.5-2.5,35.13,35.13,0,0,1,60-24.84,35.42,35.42,0,0,1,3.4,3.95,2.5,2.5,0,1,1-4,3A31.37,31.37,0,0,0,71.3,28.7,30.13,30.13,0,0,0,19.87,50,2.5,2.5,0,0,1,17.37,52.5Z"/><path class="cls-2" d="M50,85.11A35,35,0,0,1,25.16,74.84a35.73,35.73,0,0,1-3.46-4,2.5,2.5,0,0,1,4-3,31.36,31.36,0,0,0,3,3.45A30.12,30.12,0,0,0,80.12,50a2.5,2.5,0,0,1,5,0A35.08,35.08,0,0,1,50,85.11Z"/><path class="cls-2" d="M50,70A20,20,0,1,1,70,50,20,20,0,0,1,50,70Zm0-35A15,15,0,1,0,65,50,15,15,0,0,0,50,35Z"/><path class="cls-2" d="M47.27,57.22a2.53,2.53,0,0,1-1.77-.73l-4-4A2.5,2.5,0,0,1,45.08,49l2.19,2.18,7.64-7.64a2.5,2.5,0,0,1,3.54,3.54L49,56.49A2.53,2.53,0,0,1,47.27,57.22Z"/><path class="cls-2" d="M76.23,33.1H67.54a2.5,2.5,0,0,1,0-5h6.19V21.91a2.5,2.5,0,1,1,5,0V30.6A2.5,2.5,0,0,1,76.23,33.1Z"/><path class="cls-2" d="M23.71,80.5a2.5,2.5,0,0,1-2.5-2.5V69.31a2.5,2.5,0,0,1,2.5-2.5H32.4a2.5,2.5,0,1,1,0,5H26.21V78A2.5,2.5,0,0,1,23.71,80.5Z"/></svg>