<svg width="100" height="100" viewBox="0 0 100 100" fill="none" xmlns="http://www.w3.org/2000/svg">
<g clip-path="url(#clip0)">
<path d="M12.54 43.63V98H87.46V43.63H12.54ZM53.46 74.87V81.87C53.46 82.7877 53.0955 83.6677 52.4466 84.3166C51.7978 84.9655 50.9177 85.33 50 85.33C49.0824 85.33 48.2023 84.9655 47.5534 84.3166C46.9046 83.6677 46.54 82.7877 46.54 81.87V74.87C45.3074 74.1159 44.3548 72.9797 43.8274 71.6343C43.3 70.2889 43.2266 68.8081 43.6183 67.4171C44.01 66.0262 44.8455 64.8013 45.9975 63.929C47.1495 63.0566 48.555 62.5844 50 62.5844C51.4451 62.5844 52.8506 63.0566 54.0026 63.929C55.1546 64.8013 55.99 66.0262 56.3818 67.4171C56.7735 68.8081 56.7001 70.2889 56.1727 71.6343C55.6452 72.9797 54.6927 74.1159 53.46 74.87Z" fill="#FCA121"/>
<path d="M76.2198 45.63C75.6894 45.63 75.1806 45.4193 74.8056 45.0442C74.4305 44.6691 74.2198 44.1604 74.2198 43.63V28.22C74.2198 21.7965 71.668 15.636 67.1259 11.0939C62.5838 6.55174 56.4233 4 49.9998 4C43.5762 4 37.4158 6.55174 32.8737 11.0939C28.3315 15.636 25.7798 21.7965 25.7798 28.22V43.63C25.7798 44.1604 25.5691 44.6691 25.194 45.0442C24.8189 45.4193 24.3102 45.63 23.7798 45.63C23.2494 45.63 22.7406 45.4193 22.3656 45.0442C21.9905 44.6691 21.7798 44.1604 21.7798 43.63V28.22C21.7798 20.7356 24.753 13.5577 30.0452 8.26545C35.3375 2.97317 42.5154 0 49.9998 0C57.4842 0 64.6621 2.97317 69.9543 8.26545C75.2466 13.5577 78.2198 20.7356 78.2198 28.22V43.63C78.2198 44.1604 78.0091 44.6691 77.634 45.0442C77.2589 45.4193 76.7502 45.63 76.2198 45.63Z" fill="#380D75"/>
<path d="M87.46 100H12.54C12.0096 100 11.5009 99.7893 11.1258 99.4142C10.7508 99.0391 10.54 98.5304 10.54 98V51.64C10.54 51.1096 10.7508 50.6009 11.1258 50.2258C11.5009 49.8507 12.0096 49.64 12.54 49.64C13.0705 49.64 13.5792 49.8507 13.9543 50.2258C14.3293 50.6009 14.54 51.1096 14.54 51.64V96H87.46C87.9905 96 88.4992 96.2107 88.8743 96.5858C89.2493 96.9609 89.46 97.4696 89.46 98C89.46 98.5304 89.2493 99.0391 88.8743 99.4142C88.4992 99.7893 87.9905 100 87.46 100Z" fill="#380D75"/>
<path d="M87.46 92C86.9296 92 86.4209 91.7893 86.0458 91.4142C85.6707 91.0391 85.46 90.5304 85.46 90V45.63H12.54C12.0096 45.63 11.5009 45.4193 11.1258 45.0442C10.7508 44.6691 10.54 44.1604 10.54 43.63C10.54 43.0996 10.7508 42.5909 11.1258 42.2158C11.5009 41.8407 12.0096 41.63 12.54 41.63H87.46C87.9905 41.63 88.4992 41.8407 88.8743 42.2158C89.2493 42.5909 89.46 43.0996 89.46 43.63V90C89.46 90.5304 89.2493 91.0391 88.8743 91.4142C88.4992 91.7893 87.9905 92 87.46 92Z" fill="#380D75"/>
<path d="M50.0002 87.36C48.5529 87.3574 47.1657 86.7813 46.1423 85.7579C45.1189 84.7345 44.5428 83.3473 44.5402 81.9V75.9C43.2841 74.8744 42.3428 73.5152 41.8244 71.9786C41.306 70.4421 41.2315 68.7905 41.6096 67.2135C41.9876 65.6366 42.8029 64.1982 43.9616 63.0637C45.1203 61.9293 46.5756 61.1446 48.1602 60.8C49.4206 60.5268 50.7261 60.5393 51.9811 60.8365C53.236 61.1337 54.4085 61.708 55.4126 62.5174C56.4166 63.3267 57.2267 64.3506 57.7835 65.5139C58.3403 66.6772 58.6296 67.9503 58.6302 69.24C58.6353 70.5168 58.353 71.7784 57.8042 72.9313C57.2555 74.0842 56.4543 75.0988 55.4602 75.9V81.9C55.4575 83.3473 54.8814 84.7345 53.858 85.7579C52.8347 86.7813 51.4474 87.3574 50.0002 87.36ZM50.0002 64.6C49.6638 64.5993 49.3283 64.6362 49.0002 64.71C48.0997 64.9081 47.2793 65.3718 46.645 66.041C46.0107 66.7102 45.5916 67.5542 45.442 68.464C45.2923 69.3738 45.4189 70.3076 45.8054 71.1447C46.1919 71.9819 46.8206 72.6838 47.6102 73.16C47.9017 73.3398 48.1421 73.5915 48.3085 73.8909C48.4748 74.1904 48.5615 74.5275 48.5602 74.87V81.87C48.5602 82.2572 48.714 82.6286 48.9878 82.9024C49.2616 83.1762 49.6329 83.33 50.0202 83.33C50.4074 83.33 50.7787 83.1762 51.0525 82.9024C51.3263 82.6286 51.4802 82.2572 51.4802 81.87V74.87C51.4788 74.5275 51.5655 74.1904 51.7318 73.8909C51.8982 73.5915 52.1386 73.3398 52.4302 73.16C53.2901 72.6335 53.9541 71.8401 54.3209 70.9009C54.6878 69.9617 54.7373 68.9283 54.462 67.9583C54.1866 66.9883 53.6015 66.1351 52.7959 65.5287C51.9903 64.9224 51.0085 64.5962 50.0002 64.6Z" fill="#380D75"/>
</g>
<defs>
<clipPath id="clip0">
<rect width="100" height="100" fill="white"/>
</clipPath>
</defs>
</svg>
