<svg width="68" height="80" viewBox="0 0 68 80" fill="none" xmlns="http://www.w3.org/2000/svg">
<path d="M47.8956 32.2678L44.2628 28.6351C44.0627 28.4333 43.8247 28.2731 43.5624 28.1639C43.3 28.0546 43.0187 27.9983 42.7345 27.9983C42.4503 27.9983 42.169 28.0546 41.9067 28.1639C41.6444 28.2731 41.4063 28.4333 41.2062 28.6351L30.0598 39.7495L25.8189 35.5005C25.4126 35.0969 24.8632 34.8704 24.2906 34.8704C23.7179 34.8704 23.1685 35.0969 22.7622 35.5005L19.1294 39.1413C18.7263 39.5462 18.5 40.0943 18.5 40.6657C18.5 41.237 18.7263 41.7851 19.1294 42.19L28.8115 51.8721C29.143 52.2024 29.5918 52.3878 30.0598 52.3878C30.5277 52.3878 30.9766 52.2024 31.3081 51.8721L47.8956 35.3165C48.0972 35.1171 48.2571 34.8797 48.3663 34.618C48.4755 34.3564 48.5317 34.0757 48.5317 33.7922C48.5317 33.5087 48.4755 33.228 48.3663 32.9663C48.2571 32.7047 48.0972 32.4673 47.8956 32.2678Z" fill="#52CDB7"/>
<path d="M33.4912 79.9982C33.3083 79.997 33.127 79.9645 32.9551 79.9021C22.6969 76.2453 8.21376 65.8111 3.82882 56.6971C-0.260063 48.1833 -0.116032 41.0778 0.0760093 30.3235C0.164028 25.5224 0.268051 20.1373 0.0760093 13.4318C0.0630564 13.0087 0.218297 12.5977 0.50774 12.2887C0.797184 11.9798 1.19725 11.7981 1.62034 11.7835C1.83053 11.776 2.04014 11.81 2.23717 11.8836C2.43421 11.9572 2.61481 12.0689 2.76864 12.2123C2.92247 12.3557 3.04652 12.5281 3.1337 12.7195C3.22088 12.9109 3.26947 13.1176 3.2767 13.3278C3.49274 20.1133 3.38872 25.5705 3.2767 30.3795C3.07665 41.0458 2.94863 47.4792 6.71744 55.3048C10.3102 62.7785 23.329 73.0687 34.0273 76.9095C34.3701 77.0444 34.6558 77.2935 34.8363 77.6146C35.0167 77.9358 35.0808 78.3093 35.0178 78.6723C34.9548 79.0352 34.7686 79.3653 34.4904 79.6069C34.2123 79.8484 33.8594 79.9866 33.4912 79.9982Z" fill="#461189"/>
<path d="M33.4905 79.998C33.115 79.9958 32.7522 79.8615 32.4657 79.6187C32.1792 79.3759 31.9872 79.0401 31.9233 78.6701C31.8594 78.3 31.9277 77.9192 32.1162 77.5944C32.3047 77.2696 32.6014 77.0215 32.9544 76.8934C43.6527 73.0686 56.6955 62.7783 60.2643 55.3047C64.0331 47.4791 63.8971 41.0457 63.705 30.3874C63.625 26.0264 63.529 21.1374 63.705 15.1841C58.1496 15.6175 52.5666 14.8308 47.3473 12.8791C42.1279 10.9274 37.3985 7.85785 33.4905 3.88568C26.4388 10.9958 16.8968 15.0823 6.8848 15.2801C6.46037 15.2897 6.04952 15.1302 5.74264 14.8369C5.43577 14.5435 5.258 14.1402 5.24845 13.7158C5.2389 13.2914 5.39835 12.8805 5.69172 12.5736C5.98509 12.2668 6.38835 12.089 6.81279 12.0794C11.6218 11.9798 16.3602 10.9018 20.739 8.9112C25.1179 6.92057 29.0454 4.059 32.2823 0.50095C32.4393 0.342243 32.6262 0.21625 32.8322 0.130263C33.0382 0.0442749 33.2593 0 33.4825 0C33.7058 0 33.9268 0.0442749 34.1328 0.130263C34.3389 0.21625 34.5258 0.342243 34.6828 0.50095C38.4776 4.67961 43.2194 7.88717 48.5101 9.85449C53.8009 11.8218 59.4863 12.4915 65.0893 11.8074C65.3222 11.7647 65.5617 11.7743 65.7905 11.8354C66.0192 11.8965 66.2316 12.0076 66.4123 12.1607C66.5929 12.3137 66.7373 12.505 66.8351 12.7207C66.9329 12.9363 66.9816 13.171 66.9777 13.4077C66.7617 20.1132 66.8657 25.5223 66.9777 30.2994C67.1858 41.0537 67.3138 48.1592 63.2249 56.705C58.84 65.827 44.3569 76.2612 34.0987 79.91C33.9035 79.9784 33.697 80.0083 33.4905 79.998Z" fill="#461189"/>
<path d="M30.0579 53.2884C29.3936 53.289 28.7358 53.1586 28.122 52.9046C27.5082 52.6506 26.9506 52.2779 26.4811 51.8081L17.9993 43.3262C17.6497 42.977 17.3723 42.5622 17.1831 42.1057C16.9939 41.6492 16.8965 41.1598 16.8965 40.6657C16.8965 40.1715 16.9939 39.6821 17.1831 39.2256C17.3723 38.7691 17.6497 38.3544 17.9993 38.0051L21.6321 34.3883C21.9801 34.038 22.394 33.76 22.8499 33.5702C23.3059 33.3805 23.7948 33.2829 24.2886 33.2829C24.7825 33.2829 25.2714 33.3805 25.7273 33.5702C26.1833 33.76 26.5972 34.038 26.9452 34.3883L30.0579 37.501L40.036 27.4988C40.7421 26.7971 41.6971 26.4033 42.6926 26.4033C43.688 26.4033 44.6431 26.7971 45.3492 27.4988L48.9899 31.1316C49.6941 31.838 50.0894 32.7948 50.0894 33.7922C50.0894 34.7896 49.6941 35.7463 48.9899 36.4528L33.6346 51.8081C33.1649 52.2776 32.6072 52.65 31.9935 52.904C31.3798 53.158 30.7221 53.2886 30.0579 53.2884ZM24.2886 36.4848C24.2153 36.4849 24.1428 36.4999 24.0754 36.5288C24.0081 36.5576 23.9472 36.5998 23.8965 36.6528L20.2558 40.2856C20.1502 40.392 20.091 40.5358 20.091 40.6857C20.091 40.8355 20.1502 40.9793 20.2558 41.0857L28.7456 49.5676C29.0947 49.9135 29.5664 50.1076 30.0579 50.1076C30.5494 50.1076 31.021 49.9135 31.3702 49.5676L46.7255 34.1883C46.831 34.0819 46.8902 33.9381 46.8902 33.7882C46.8902 33.6383 46.831 33.4945 46.7255 33.3881L43.0927 29.7633C43.0401 29.7112 42.9776 29.6701 42.9089 29.6427C42.8402 29.6152 42.7666 29.6018 42.6926 29.6033C42.6198 29.6019 42.5475 29.6154 42.4801 29.6429C42.4127 29.6705 42.3516 29.7114 42.3005 29.7633L31.1861 40.8777C30.8801 41.1669 30.475 41.3281 30.0539 41.3281C29.6328 41.3281 29.2277 41.1669 28.9216 40.8777L24.6887 36.6368C24.6368 36.5832 24.5746 36.5407 24.5059 36.5118C24.4371 36.4829 24.3632 36.4683 24.2886 36.4688V36.4848Z" fill="#461189"/>
</svg>
